<svg xmlns="http://www.w3.org/2000/svg" xmlns:xlink="http://www.w3.org/1999/xlink" version="1.1" x="0px" y="0px" viewBox="0 0 512 640" enable-background="new 0 0 512 512" xml:space="preserve"><path d="M256,2C115.9,2,2,115.9,2,256s113.9,254,254,254s254-113.9,254-254S396.1,2,256,2z M417.4,375.4l5.4-2.3  c7.2-3,10.6-11.3,7.6-18.5c-3-7.2-11.3-10.6-18.5-7.6l-8,3.4c-3.9-8.4-7.2-16.9-10-25.7l10.6-2.1c7.6-1.5,12.6-9,11.1-16.6  c-1.5-7.6-8.9-12.6-16.6-11.1l-11.9,2.4c-1.7-9-2.8-18.1-3.3-27.3h12.8c7.8,0,14.1-6.3,14.1-14.1c0-7.8-6.3-14.1-14.1-14.1h-12.8  c0.6-9.2,1.7-18.3,3.3-27.3l11.9,2.4c7.5,1.2,14.9-3.5,16.6-11.1c1.7-7.6-3.4-15.1-11.1-16.6l-10.6-2.1c2.8-8.8,6.2-17.3,10-25.7  l8.1,3.4c8.7,2.7,15.7-1.2,18.5-7.6c3.1-7.1-0.4-15.5-7.6-18.5l-5.5-2.3c4.6-7.3,9.7-14.3,15.1-21.1c30.8,38.6,49.3,87.5,49.3,140.6  c0,53.1-18.5,101.9-49.2,140.5C427.1,389.7,422,382.7,417.4,375.4z M79.5,115.4c5.4,6.8,10.5,13.8,15.1,21.1l-5.5,2.3  c-7.2,3-10.7,11.3-7.6,18.5c2.8,6.4,9.8,10.2,18.5,7.6l8.1-3.4c3.9,8.4,7.2,16.9,10,25.7l-10.6,2.1c-7.6,1.5-12.8,9-11.1,16.6  c1.7,7.5,9.1,12.3,16.6,11.1l11.9-2.4c1.7,9,2.8,18.1,3.3,27.3h-12.8c-7.8,0-14.1,6.3-14.1,14.1c0,7.8,6.3,14.1,14.1,14.1h12.8  c-0.6,9.2-1.7,18.3-3.3,27.3l-11.9-2.4c-7.7-1.6-15.1,3.4-16.6,11.1c-1.5,7.6,3.4,15.1,11.1,16.6l10.6,2.1  c-2.8,8.8-6.2,17.3-10,25.7l-8-3.4c-7.2-3-15.5,0.4-18.5,7.6c-3,7.2,0.4,15.5,7.6,18.5l5.4,2.3c-4.6,7.3-9.7,14.3-15.1,21.1  C48.7,357.9,30.2,309.1,30.2,256C30.2,202.9,48.7,154,79.5,115.4z M98.8,417.8c8.2-9.9,15.6-20.4,22.2-31.4l15.4,6.5  c8.4,2.6,16.2-2.1,18.5-7.6c3-7.2-0.4-15.5-7.6-18.5l-13.1-5.5c4.6-10.1,8.5-20.4,11.8-31l11.8,2.4c8.4,1.7,15.2-3.9,16.6-11.1  c1.5-7.7-3.4-15.1-11.1-16.6l-10.5-2.1c2-10.8,3.3-21.8,3.9-32.9h10.1c7.8,0,14.1-6.3,14.1-14.1c0-7.8-6.3-14.1-14.1-14.1h-10.1  c-0.6-11.1-1.9-22.1-3.9-32.9l10.5-2.1c7.6-1.5,12.6-9,11.1-16.6c-1.5-7.6-8.9-12.6-16.6-11.1l-11.8,2.4c-3.2-10.6-7.2-21-11.8-31  l13.1-5.5c7.2-3,10.6-11.3,7.5-18.5c-3-7.2-11.3-10.6-18.5-7.6l-15.4,6.5c-6.6-10.9-13.9-21.4-22.1-31.3  c40.7-39.5,96.1-63.9,157.2-63.9c61.1,0,116.5,24.4,157.2,63.9c-8.2,9.9-15.6,20.4-22.1,31.3l-15.4-6.5c-7.2-3-15.5,0.4-18.5,7.6  c-3,7.2,0.4,15.5,7.5,18.5l13.1,5.5c-4.6,10.1-8.5,20.4-11.8,31l-11.8-2.4c-7.7-1.6-15.1,3.4-16.6,11.1c-1.5,7.6,3.4,15.1,11.1,16.6  l10.5,2.1c-2,10.8-3.3,21.8-3.9,32.9h-10.1c-7.8,0-14.1,6.3-14.1,14.1c0,7.8,6.3,14.1,14.1,14.1h10.1c0.6,11.1,1.9,22.1,3.9,32.9  l-10.5,2.1c-7.6,1.5-12.5,9-11.1,16.6c1.4,7.2,8.2,12.8,16.6,11.1l11.8-2.4c3.2,10.6,7.2,21,11.8,31l-13.1,5.5  c-7.2,3-10.6,11.3-7.6,18.5c2.3,5.4,10.1,10.1,18.5,7.6l15.4-6.5c6.6,10.9,14,21.4,22.2,31.4c-40.7,39.5-96.1,64-157.2,64  C194.9,481.8,139.5,457.4,98.8,417.8z"/><text x="0" y="527" fill="#000000" font-size="5px" font-weight="bold" font-family="'Helvetica Neue', Helvetica, Arial-Unicode, Arial, Sans-serif">Created by Icon Fair</text><text x="0" y="532" fill="#000000" font-size="5px" font-weight="bold" font-family="'Helvetica Neue', Helvetica, Arial-Unicode, Arial, Sans-serif">from the Noun Project</text></svg>