<svg width="64" height="64" xmlns="http://www.w3.org/2000/svg">
 <title>basketball, sport</title>

 <g>
  <title>background</title>
  <rect fill="none" id="canvas_background" height="66" width="66" y="-1" x="-1"/>
 </g>
 <g>
  <title>Layer 1</title>
  <g id="svg_1">
   <path fill="#ed780b" id="svg_2" d="m45.455,27.553a19.235,19.235 0 0 1 -1.27,6.638a24.771,24.771 0 0 1 -4.551,-0.284c1.008,-2.824 2.911,-5.477 5.821,-6.354zm-0.079,-2.032a19.388,19.388 0 0 0 -8.609,-14.363a23.979,23.979 0 0 1 -2.044,21.542a30.088,30.088 0 0 0 2.938,0.836c1.231,-3.602 3.754,-7.059 7.715,-8.015zm-16.574,4.547a37.978,37.978 0 0 0 4.007,1.926l0.025,-0.035c4.258,-6.477 4.738,-14.459 1.32,-21.906a1,1 0 0 1 -0.09,-0.381a19.241,19.241 0 0 0 -7.98,-1.74a19.523,19.523 0 0 0 -1.99,0.1c1.376,1.934 4.632,6.5 5.957,8.324c2.035,2.801 2.89,8.787 -1.249,13.712zm-1.756,-1.022c4.011,-4.5 2.657,-9.766 1.388,-11.512c-1.587,-2.182 -5.941,-8.3 -6.535,-9.134a19.369,19.369 0 0 0 -10.177,5.944a51.776,51.776 0 0 0 15.324,14.702zm-16.176,3.411c4.539,3.22 10.586,1.5 14.649,-1.932a52.39,52.39 0 0 1 -15.116,-14.557a19.254,19.254 0 0 0 -3.7,11.347c0,0.1 0.013,0.188 0.014,0.283a21.1,21.1 0 0 0 4.153,4.859zm20.7,1.221a40.778,40.778 0 0 1 -4.249,-2.078a16.916,16.916 0 0 1 -10.98,4.561a11.276,11.276 0 0 1 -6.629,-2.072a14.268,14.268 0 0 1 -2.508,-2.45a19.4,19.4 0 0 0 6.4,10.482a0.959,0.959 0 0 1 0.334,-0.052a22.086,22.086 0 0 0 17.632,-8.391zm5.554,1.8a32.948,32.948 0 0 1 -3.6,-1.047a24.392,24.392 0 0 1 -17.275,9.559a19.237,19.237 0 0 0 20.992,-0.851a21.147,21.147 0 0 1 -0.481,-4.55a15.406,15.406 0 0 1 0.364,-3.108l0,-0.003zm1.955,0.374a13.8,13.8 0 0 0 -0.319,2.747a19.046,19.046 0 0 0 0.25,3.116a19.447,19.447 0 0 0 4.282,-5.509a27.393,27.393 0 0 1 -4.213,-0.351l0,-0.003zm-32.009,-22.592l0,-1.548a1,1 0 0 0 -2,0l0,1.548a1,1 0 0 0 2,0zm-1,-4.968a1,1 0 0 0 1,-1l0,-6.292a1,1 0 0 0 -2,0l0,6.292a1,1 0 0 0 1,1zm-5.07,2.079a1,1 0 0 0 -1,1l0,15.944a1,1 0 0 0 2,0l0,-15.944a1,1 0 0 0 -1,-1zm49.384,17.849a1,1 0 0 0 -1,1l0,15.872a1,1 0 0 0 2,0l0,-15.872a1,1 0 0 0 -1,-1zm0,-8.624a1,1 0 0 0 -1,1l0,3.7a1,1 0 0 0 2,0l0,-3.696a1,1 0 0 0 -1,-1l0,-0.004zm-6.831,23.826a1,1 0 0 0 -1,1l0,5.978a1,1 0 0 0 2,0l0,-5.978a1,1 0 0 0 -1,-1z"/>
  </g>
  <text id="svg_4" font-family="'Helvetica Neue', Helvetica, Arial-Unicode, Arial, Sans-serif" font-weight="bold" font-size="5px" fill="#000000" y="84" x="0">from the Noun Project</text>
 </g>
</svg>