<svg width="100" height="100" xmlns="http://www.w3.org/2000/svg">

 <g>
  <title>background</title>
  <rect fill="#000000" id="canvas_background" height="102" width="102" y="-1" x="-1"/>
 </g>
 <g>
  <title>Layer 1</title>
  <path fill="#0000bf" id="svg_1" d="m49.999,8c-24.812,0 -44.999,20.186 -44.999,45c0,24.813 20.187,45 45,45s45,-20.187 45,-45c0,-12.021 -4.68,-23.323 -13.181,-31.821c-8.498,-8.5 -19.798,-13.179 -31.82,-13.179zm-14.911,6.402l13.658,4.862l0,14.402l-16.746,12.167l-13.696,-4.45l-0.404,-14.473c4.51,-5.538 10.421,-9.884 17.188,-12.508zm-19.819,61.064c-3.817,-5.881 -6.189,-12.781 -6.592,-20.202l8.853,-11.497l13.697,4.451l6.396,19.686l-8.465,11.65l-13.889,-4.088zm45.346,17.535c-3.389,0.9 -6.945,1.386 -10.615,1.386c-3.669,0 -7.225,-0.486 -10.614,-1.386l-8.2,-11.972l8.467,-11.652l20.697,0l8.466,11.651l-8.201,11.973zm30.708,-37.736c-0.402,7.419 -2.774,14.32 -6.591,20.2l-13.888,4.089l-8.466,-11.652l6.395,-19.683l13.699,-4.451l8.851,11.497zm-9.626,-13.882l-13.697,4.45l-16.746,-12.166l0,-14.402l13.688,-4.872c5.308,2.052 10.18,5.197 14.324,9.341c1.004,1.004 1.948,2.053 2.835,3.138l-0.404,14.511z"/>
 </g>
</svg>